<svg xmlns="http://www.w3.org/2000/svg" width="21.63" height="24.034" viewBox="0 0 21.63 24.034">
  <path id="ic_assignment_24px" d="M22.227,3.4H17.2a3.591,3.591,0,0,0-6.778,0H5.4A2.41,2.41,0,0,0,3,5.807V22.63a2.41,2.41,0,0,0,2.4,2.4H22.227a2.41,2.41,0,0,0,2.4-2.4V5.807A2.41,2.41,0,0,0,22.227,3.4Zm-8.412,0a1.2,1.2,0,1,1-1.2,1.2A1.205,1.205,0,0,1,13.815,3.4Zm2.4,16.824H7.807v-2.4h8.412Zm3.605-4.807H7.807v-2.4H19.824Zm0-4.807H7.807V8.21H19.824Z" transform="translate(-3 -1)" fill="#8d8d8d" opacity="0.3"/>
</svg>


