<svg xmlns="http://www.w3.org/2000/svg" width="24.814" height="24.062" viewBox="0 0 24.814 24.062">
  <g id="repeat" opacity="0.3">
    <g id="Group_1960" data-name="Group 1960" transform="translate(0 0)">
      <path id="Path_972" data-name="Path 972" d="M30.353,11.316,24.683,7.5a.465.465,0,0,0-.725.385V9.948H7.8A1.754,1.754,0,0,0,6.05,11.7V21.02H9.557V13.46h14.4v2.067a.464.464,0,0,0,.725.385l5.67-3.821A.466.466,0,0,0,30.353,11.316Z" transform="translate(-5.743 -7.421)" fill="#8d8d8d"/>
      <path id="Path_973" data-name="Path 973" d="M21,221.354H6.605v-2.062a.464.464,0,0,0-.725-.385L.205,222.723a.469.469,0,0,0,0,.775l5.67,3.821a.465.465,0,0,0,.725-.385v-2.067H22.75a1.754,1.754,0,0,0,1.753-1.753v-9.319H21v7.56Z" transform="translate(0 -203.336)" fill="#8d8d8d"/>
    </g>
  </g>
</svg>
