<svg xmlns="http://www.w3.org/2000/svg" width="25" height="25" viewBox="0 0 25 25">
  <path id="settings" d="M452.75,213.25h-2.07c-.3,0-.715-.02-.713-.321a5.676,5.676,0,0,0-1.16-3.556c-.2-.221-.145-.424.068-.636l1.464-1.385a1.2,1.2,0,0,0,0-1.729,1.25,1.25,0,0,0-1.767.019l-1.464,1.474a.628.628,0,0,1-.792.074,8.683,8.683,0,0,0-3.052-1.262.624.624,0,0,1-.513-.606v-2.07a1.25,1.25,0,0,0-2.5,0v2.07a.626.626,0,0,1-.513.609,8.685,8.685,0,0,0-3.052,1.264.625.625,0,0,1-.792-.068l-1.464-1.464a1.25,1.25,0,0,0-1.767,1.767l1.464,1.464a.612.612,0,0,1,.068.792A6.452,6.452,0,0,0,433,213.05c-.034.3-.381.2-.682.2h-2.07a1.25,1.25,0,0,0,0,2.5h2.07c.3,0,.666.11.726.4A7.541,7.541,0,0,0,434.193,219a.864.864,0,0,1-.068.949l-1.464,1.541a1.3,1.3,0,0,0,0,1.807,1.25,1.25,0,0,0,1.767.019l1.464-1.454a.625.625,0,0,1,.792-.062,8.714,8.714,0,0,0,3.052,1.266.629.629,0,0,1,.513.611v2.07a1.25,1.25,0,0,0,2.5,0v-2.07a.626.626,0,0,1,.513-.609,8.709,8.709,0,0,0,3.052-1.264.625.625,0,0,1,.792.068l1.464,1.464a1.25,1.25,0,0,0,1.767-1.767l-1.464-1.464a.625.625,0,0,1-.068-.792,9.039,9.039,0,0,0,1.264-2.427c.1-.285.307-1.138.609-1.138h2.07a1.25,1.25,0,0,0,0-2.5Zm-5.225,2.948a6.167,6.167,0,0,1-4.328,4.328,6.271,6.271,0,0,1-7.723-7.723,6.167,6.167,0,0,1,4.328-4.328A6.271,6.271,0,0,1,447.525,216.2Z" transform="translate(-429 -202)" fill="#dcdcdc"/>
</svg>
